<?xml version="1.0" encoding="utf-8"?>
<!-- Generator: Adobe Illustrator 16.0.0, SVG Export Plug-In . SVG Version: 6.00 Build 0)  -->
<!DOCTYPE svg PUBLIC "-//W3C//DTD SVG 1.1//EN" "http://www.w3.org/Graphics/SVG/1.1/DTD/svg11.dtd">
<svg version="1.1" id="Livello_1" xmlns="http://www.w3.org/2000/svg" xmlns:xlink="http://www.w3.org/1999/xlink" x="0px" y="0px"
	 width="83.7px" height="39.2px" viewBox="0 0 83.7 39.2" enable-background="new 0 0 83.7 39.2" xml:space="preserve">
<g>
	<defs>
		<rect id="SVGID_1_" width="83.7" height="39.2"/>
	</defs>
	<clipPath id="SVGID_2_">
		<use xlink:href="#SVGID_1_"  overflow="visible"/>
	</clipPath>
	<path clip-path="url(#SVGID_2_)" d="M30.1,35.2H17.6c-7.5,0-13.6-6.1-13.6-13.6v-4C4,10.101,10.1,4,17.6,4h16.5
		c7.5,0,13.6,6.1,13.6,13.6v8c0,1.1,0.899,2,2,2c1.1,0,2-0.9,2-2v-8C51.7,7.9,43.8,0,34.1,0H17.6C7.9,0,0,7.9,0,17.601v4
		c0,9.7,7.9,17.6,17.6,17.6h12.5c1.1,0,2-0.899,2-2S31.2,35.2,30.1,35.2"/>
	<path clip-path="url(#SVGID_2_)" d="M66.101,0h-10.5c-1.102,0-2,0.9-2,2c0,1.1,0.898,2,2,2h10.5c7.5,0,13.6,6.1,13.6,13.6v4
		c0,7.5-6.1,13.6-13.6,13.6h-14.5c-7.5,0-13.601-6.1-13.601-13.6v-8c0-1.1-0.899-2-2-2c-1.099,0-2,0.9-2,2v8
		C34,31.3,41.9,39.2,51.601,39.2h14.5c9.699,0,17.6-7.9,17.6-17.6v-4C83.7,7.9,75.8,0,66.101,0"/>
</g>
</svg>
