<?xml version="1.0" encoding="utf-8"?>
<!-- Generator: Adobe Illustrator 16.0.0, SVG Export Plug-In . SVG Version: 6.00 Build 0)  -->
<!DOCTYPE svg PUBLIC "-//W3C//DTD SVG 1.1//EN" "http://www.w3.org/Graphics/SVG/1.1/DTD/svg11.dtd">
<svg version="1.1" id="Livello_1" xmlns="http://www.w3.org/2000/svg" xmlns:xlink="http://www.w3.org/1999/xlink" x="0px" y="0px"
	 width="74.348px" height="33.938px" viewBox="0 0 74.348 33.938" enable-background="new 0 0 74.348 33.938" xml:space="preserve">
<g>
	<defs>
		<rect id="SVGID_1_" y="0" width="74.348" height="33.938"/>
	</defs>
	<clipPath id="SVGID_2_">
		<use xlink:href="#SVGID_1_"  overflow="visible"/>
	</clipPath>
</g>
<g>
	<defs>
		<rect id="SVGID_3_" y="0" width="74.348" height="33.938"/>
	</defs>
	<clipPath id="SVGID_4_">
		<use xlink:href="#SVGID_3_"  overflow="visible"/>
	</clipPath>
	<path clip-path="url(#SVGID_4_)" stroke="#0f64d2" d="M21.852,9.766H8.423c-0.732,0-1.342-0.61-1.342-1.343c0-0.732,0.61-1.343,1.342-1.343h13.429
		c0.732,0,1.343,0.611,1.343,1.343C23.195,9.156,22.584,9.766,21.852,9.766"/>
	<path clip-path="url(#SVGID_4_)" stroke="#0f64d2" d="M17.946,26.857h-8.79c-0.732,0-1.343-0.61-1.343-1.343s0.611-1.345,1.343-1.345h8.79
		c0.732,0,1.343,0.612,1.343,1.345S18.678,26.857,17.946,26.857"/>
	<path clip-path="url(#SVGID_4_)" stroke="#0f64d2" d="M13.917,18.312H1.343C0.61,18.312,0,17.701,0,16.968c0-0.732,0.61-1.343,1.343-1.343h12.574
		c0.732,0,1.343,0.611,1.343,1.343C15.26,17.701,14.649,18.312,13.917,18.312"/>
	<path clip-path="url(#SVGID_4_)" stroke="#0f64d2" d="M64.823,11.963L64.823,11.963l0.244-0.244c0.122-0.122,0.366-0.244,0.488-0.488l0.367-0.367
		l1.098-1.098c0.366-0.244,0.366-0.733,0.366-1.099c0-0.122-0.122-0.244-0.244-0.488c-0.366-0.366-0.977-0.488-1.342-0.244
		c-0.123,0-0.123,0.122-0.245,0.122l-0.977,0.854c-2.93,2.564-5.737,5.25-8.668,7.813c-0.609,0.611-1.343,1.221-1.952,1.709
		c-1.1,0.854-2.32,1.343-3.419,1.221c-1.221,0-2.441-0.366-3.418-1.221c-0.732-0.61-1.343-1.22-1.952-1.709
		c-2.932-2.563-5.739-5.249-8.668-7.813l-0.977-0.854c-0.122,0-0.122-0.122-0.244-0.122c-0.488-0.244-0.977-0.122-1.343,0.244
		c-0.122,0.122-0.244,0.244-0.244,0.488c-0.122,0.366,0,0.855,0.366,1.099l1.099,1.098l0.366,0.367
		c0.122,0.122,0.366,0.244,0.488,0.488l0.123,0.122l0.122,0.122c1.464,1.221,2.807,2.564,4.272,3.785
		c0.488,0.488,1.1,0.976,1.587,1.465l-0.244,0.244c-2.319,2.197-4.517,4.395-6.835,6.713l-0.244,0.244
		c-0.244,0.367-0.244,0.855,0,1.222s0.732,0.61,1.098,0.366c0.245-0.123,0.367-0.245,0.611-0.366
		c2.197-2.198,4.516-4.396,6.714-6.593l0.365-0.366c0.611,0.61,1.222,1.099,1.832,1.587c1.222,1.099,2.563,1.71,4.15,1.954h0.855
		h0.854c1.587-0.122,3.052-0.855,4.151-1.954c0.609-0.488,1.22-1.099,1.831-1.587l0.365,0.366c2.198,2.197,4.518,4.395,6.716,6.593
		c0.121,0.121,0.365,0.366,0.609,0.366c0.488,0.122,0.855,0,1.1-0.366c0.243-0.366,0.243-0.854,0-1.222
		c-0.122-0.122-0.122-0.244-0.244-0.244c-2.32-2.196-4.518-4.395-6.837-6.713l-0.244-0.244c0.487-0.489,1.099-0.977,1.587-1.465
		C61.894,14.527,63.358,13.184,64.823,11.963"/>
	<path clip-path="url(#SVGID_4_)" stroke="#0f64d2" d="M64.702,33.938H26.491V9.766C26.491,4.395,30.886,0,36.257,0h38.088v24.049
		C74.467,29.543,70.072,33.938,64.702,33.938 M29.421,31.008H64.58c3.783,0,6.836-3.052,6.836-6.837V2.93H36.379
		c-3.784,0-6.836,3.052-6.836,6.836v21.242H29.421z"/>
</g>
</svg>
