<?xml version="1.0" encoding="utf-8"?>
<!-- Generator: Adobe Illustrator 16.0.0, SVG Export Plug-In . SVG Version: 6.00 Build 0)  -->
<!DOCTYPE svg PUBLIC "-//W3C//DTD SVG 1.1//EN" "http://www.w3.org/Graphics/SVG/1.1/DTD/svg11.dtd">
<svg version="1.1" id="Livello_1" xmlns="http://www.w3.org/2000/svg" xmlns:xlink="http://www.w3.org/1999/xlink" x="0px" y="0px"
	 width="46.965px" height="49.661px" viewBox="0 0 46.965 49.661" enable-background="new 0 0 46.965 49.661" xml:space="preserve">
<g>
	<defs>
		<rect id="SVGID_1_" y="0" width="46.965" height="49.661"/>
	</defs>
	<clipPath id="SVGID_2_">
		<use xlink:href="#SVGID_1_"  overflow="visible"/>
	</clipPath>
	<path clip-path="url(#SVGID_2_)" stroke="#0f64d2" d="M46.6,17.353c-3.059-3.655-8.659-9.781-16.475-16.943c-0.458-0.419-1.12-0.527-1.688-0.275
		c-0.567,0.252-0.931,0.816-0.925,1.437c0,0.107,0.001,0.214,0.001,0.318c0.005,2.918-0.388,5.634-0.434,8.707
		c-3.144,0.133-6.178,0.679-9.037,1.748c-3.325,1.241-6.404,3.191-9.098,5.948C2.877,24.509,0.004,32.97,0,40.862
		c0,2.639,0.322,5.219,0.967,7.641c0.185,0.69,0.821,1.172,1.537,1.158c0.716-0.015,1.333-0.519,1.49-1.218
		c1.15-5.12,3.935-10.276,8.043-14.1c4.116-3.824,9.505-6.341,16.066-6.347c0.323,0,0.652,0.011,0.981,0.022
		c-0.005,0.415-0.008,0.852-0.008,1.308c0.001,2.817,0.087,6.183,0.243,7.944c0.057,0.632,0.496,1.17,1.104,1.354
		c0.608,0.182,1.272-0.025,1.668-0.523c2.588-3.25,4.354-5.83,6.386-8.625c2.034-2.798,4.349-5.834,8.095-10.093
		C47.085,18.804,47.096,17.944,46.6,17.353 M3.12,40.862c-0.005-7.146,2.64-14.859,8.057-20.39c2.381-2.434,5.041-4.115,7.959-5.207
		c2.917-1.09,6.099-1.585,9.492-1.585h0.005v-0.002c0.007,0,0.015-0.001,0.021-0.002c0.015,0,0.026,0.003,0.042,0.003
		c0.04-0.001,0.078-0.012,0.117-0.016c0.053-0.005,0.104-0.01,0.155-0.021c0.05-0.011,0.099-0.027,0.146-0.042
		c0.048-0.015,0.098-0.03,0.145-0.05s0.09-0.045,0.134-0.069c0.045-0.024,0.089-0.048,0.13-0.076s0.077-0.061,0.116-0.093
		c0.038-0.032,0.076-0.063,0.111-0.099s0.065-0.075,0.098-0.114c0.031-0.039,0.062-0.076,0.092-0.118
		c0.026-0.042,0.051-0.088,0.073-0.133c0.023-0.043,0.047-0.085,0.066-0.131c0.021-0.049,0.035-0.101,0.05-0.153
		c0.014-0.045,0.029-0.09,0.038-0.138c0.012-0.056,0.016-0.113,0.021-0.171c0.003-0.036,0.012-0.07,0.013-0.106
		c0-0.012-0.003-0.024-0.003-0.036c0-0.015,0.004-0.029,0.003-0.044h-0.001c-0.011-0.33-0.017-0.657-0.017-0.981
		c-0.003-2.003,0.194-3.963,0.328-6.055c5.768,5.448,10.108,10.135,12.837,13.31c-3.299,3.806-5.493,6.688-7.391,9.299
		c-1.282,1.766-2.432,3.403-3.72,5.146c-0.026-1.15-0.042-2.357-0.041-3.46c0-1.037,0.013-1.988,0.038-2.712
		c0.029-0.828-0.59-1.533-1.414-1.609c-0.921-0.085-1.827-0.127-2.716-0.127c-7.384-0.005-13.59,2.888-18.192,7.184"/>
</g>
</svg>
