<svg xmlns="http://www.w3.org/2000/svg" width="16" height="16" style=""><rect id="backgroundrect" width="100%" height="100%" x="0" y="0" fill="none" stroke="none"/>

 <g style="">
  <title>background</title>
  <rect fill="none" id="canvas_background" height="402" width="582" y="-1" x="-1"/>
 </g>
 <g style="" class="currentLayer">
  <title>Layer 1</title>
  <g stroke="null" id="surface1" class="selected" fill-opacity="1" fill="#ff0000">
   <path stroke="null" id="svg_1" d="m9.348941,0.062595l0,1.317693l4.339123,0l-8.261315,8.266467l0.926496,0.926496l8.266467,-8.261315l0,4.339123l1.317693,0l0,-6.588464l-6.588464,0zm-6.588464,2.635386c-1.45667,0 -2.635386,1.178716 -2.635386,2.635386l0,7.906157c0,1.45667 1.178716,2.635386 2.635386,2.635386l7.906157,0c1.45667,0 2.635386,-1.178716 2.635386,-2.635386l0,-6.588464l-1.317693,1.317693l0,5.270771c0,0.725759 -0.591934,1.317693 -1.317693,1.317693l-7.906157,0c-0.725759,0 -1.317693,-0.591934 -1.317693,-1.317693l0,-7.906157c0,-0.725759 0.591934,-1.317693 1.317693,-1.317693l5.270772,0l1.317693,-1.317693l-6.588464,0z" fill="#ff0000"/>
  </g>
 </g>
</svg>