<?xml version="1.0" encoding="utf-8"?>
<!-- Generator: Adobe Illustrator 16.0.0, SVG Export Plug-In . SVG Version: 6.00 Build 0)  -->
<!DOCTYPE svg PUBLIC "-//W3C//DTD SVG 1.1//EN" "http://www.w3.org/Graphics/SVG/1.1/DTD/svg11.dtd">
<svg version="1.1" id="Livello_1" xmlns="http://www.w3.org/2000/svg" xmlns:xlink="http://www.w3.org/1999/xlink" x="0px" y="0px"
	 width="27.819px" height="26.124px" viewBox="0 0 27.819 26.124" enable-background="new 0 0 27.819 26.124" xml:space="preserve">
<g>
	<defs>
		<rect id="SVGID_1_" width="27.819" height="26.124"/>
	</defs>
	<clipPath id="SVGID_2_">
		<use xlink:href="#SVGID_1_"  overflow="visible"/>
	</clipPath>
	<path clip-path="url(#SVGID_2_)" stroke="#0f64d2" d="M26.886,24.259H15.969l11.206-10.994c0.225-0.28,0.269-0.663,0.113-0.987
		c-0.157-0.322-0.483-0.528-0.841-0.528h-7.191V2.778C19.256,1.246,18.01,0,16.478,0h-4.902c-1.532,0-2.778,1.246-2.778,2.778v8.972
		H1.606c-0.359,0-0.685,0.206-0.842,0.528c-0.155,0.324-0.111,0.707,0.113,0.987l11.206,10.994H0.933
		C0.418,24.259,0,24.676,0,25.191s0.417,0.933,0.933,0.933h25.953c0.516,0,0.934-0.417,0.934-0.933S27.402,24.259,26.886,24.259
		 M3.549,13.615h6.182c0.516,0,0.933-0.417,0.933-0.933V2.777c0-0.503,0.41-0.912,0.913-0.912h4.903c0.503,0,0.911,0.41,0.911,0.912
		v9.905c0,0.515,0.417,0.933,0.933,0.933h6.182L14.027,23.7L3.549,13.615z"/>
</g>
</svg>
