<?xml version="1.0" encoding="utf-8"?>
<!-- Generator: Adobe Illustrator 16.0.0, SVG Export Plug-In . SVG Version: 6.00 Build 0)  -->
<!DOCTYPE svg PUBLIC "-//W3C//DTD SVG 1.1//EN" "http://www.w3.org/Graphics/SVG/1.1/DTD/svg11.dtd">
<svg version="1.1" id="Livello_1" xmlns="http://www.w3.org/2000/svg" xmlns:xlink="http://www.w3.org/1999/xlink" x="0px" y="0px"
	 width="48px" height="35.513px" viewBox="0 0 48 35.513" enable-background="new 0 0 48 35.513" xml:space="preserve">
<g>
	<defs>
		<rect id="SVGID_1_" y="0" width="48" height="35.513"/>
	</defs>
	<clipPath id="SVGID_2_">
		<use xlink:href="#SVGID_1_"  overflow="visible"/>
	</clipPath>
	<path clip-path="url(#SVGID_2_)" d="M33.67,29.2c-0.553,2.204-2.535,3.848-4.909,3.848s-4.356-1.644-4.911-3.848
		c-0.1-0.396-0.17-0.805-0.17-1.23s0.07-0.835,0.17-1.232c0.555-2.204,2.537-3.848,4.911-3.848s4.356,1.644,4.909,3.848
		c0.1,0.397,0.169,0.807,0.169,1.232S33.77,28.805,33.67,29.2 M46.769,26.737H36.178c-0.593-3.571-3.682-6.311-7.417-6.311
		c-3.736,0-6.824,2.739-7.418,6.311H1.231C0.551,26.737,0,27.289,0,27.97c0,0.679,0.551,1.23,1.231,1.23h20.111
		c0.594,3.572,3.682,6.312,7.418,6.312c3.735,0,6.824-2.74,7.417-6.312h10.591c0.68,0,1.231-0.552,1.231-1.23
		C48,27.289,47.448,26.737,46.769,26.737 M14.329,6.31c0.552-2.204,2.537-3.847,4.911-3.847s4.357,1.643,4.911,3.847
		c0.099,0.397,0.167,0.805,0.167,1.232c0,0.425-0.068,0.835-0.167,1.231c-0.554,2.204-2.537,3.849-4.911,3.849
		s-4.359-1.645-4.911-3.849c-0.1-0.396-0.17-0.806-0.17-1.231C14.158,7.114,14.229,6.707,14.329,6.31 M1.231,8.772h10.59
		c0.591,3.571,3.68,6.312,7.418,6.312c3.736,0,6.824-2.741,7.418-6.312h20.111c0.68,0,1.231-0.552,1.231-1.231
		c0-0.68-0.552-1.232-1.231-1.232H26.657C26.063,2.738,22.976,0,19.239,0c-3.738,0-6.827,2.738-7.418,6.309H1.231
		C0.551,6.31,0,6.861,0,7.542C0,8.221,0.551,8.772,1.231,8.772"/>
</g>
</svg>
