<?xml version="1.0" encoding="utf-8"?>
<!-- Generator: Adobe Illustrator 16.0.0, SVG Export Plug-In . SVG Version: 6.00 Build 0)  -->
<!DOCTYPE svg PUBLIC "-//W3C//DTD SVG 1.1//EN" "http://www.w3.org/Graphics/SVG/1.1/DTD/svg11.dtd">
<svg version="1.1" id="Livello_1" xmlns="http://www.w3.org/2000/svg" xmlns:xlink="http://www.w3.org/1999/xlink" x="0px" y="0px"
	 width="65.582px" height="65.667px" viewBox="0 0 65.582 65.667" enable-background="new 0 0 65.582 65.667" xml:space="preserve">
<g>
	<defs>
		<rect id="SVGID_1_" y="0" width="65.582" height="65.667"/>
	</defs>
	<clipPath id="SVGID_2_">
		<use xlink:href="#SVGID_1_"  overflow="visible"/>
	</clipPath>
</g>
<g>
	<defs>
		<rect id="SVGID_3_" y="0" width="65.582" height="65.667"/>
	</defs>
	<clipPath id="SVGID_4_">
		<use xlink:href="#SVGID_3_"  overflow="visible"/>
	</clipPath>
	<path clip-path="url(#SVGID_4_)" fill="#0f64d2" d="M56.02,9.562C49.842,3.385,41.634,0,32.833,0c-8.8,0-17.093,3.469-23.271,9.647
		C3.385,15.824,0,24.032,0,32.833c0,8.801,3.47,17.094,9.647,23.272c6.178,6.176,14.386,9.562,23.186,9.562
		c8.801,0,17.009-3.555,23.187-9.731c6.179-6.177,9.562-14.386,9.562-23.186C65.582,23.948,62.198,15.739,56.02,9.562
		 M35.518,55.237c0,0.479-0.384,0.957-0.958,0.957h-3.542c-0.478,0-0.957-0.382-0.957-0.957v-3.543c0-0.478,0.383-0.957,0.957-0.957
		h3.542c0.479,0,0.958,0.383,0.958,0.957V55.237z M45.762,27.984c-0.383,1.34-1.053,2.681-1.817,3.83
		c-0.385,0.479-0.958,1.245-1.438,1.723c-0.766,0.766-1.628,1.628-2.393,2.394c-0.575,0.479-1.15,1.053-1.725,1.628
		c-0.67,0.766-1.245,1.531-1.724,2.489c-0.479,1.053-0.765,2.105-0.957,3.16c0,0.383-0.095,0.67-0.095,1.053
		c0,0.287,0,0.575-0.097,0.862c-0.191,0.383-0.574,0.573-0.958,0.573h-3.542c-0.67,0-0.957-0.573-1.149-0.86
		c0-0.671,0.096-1.245,0.192-1.915c0.383-2.395,1.436-4.692,3.16-6.512c0.67-0.671,1.34-1.341,1.914-2.011l2.396-2.585
		c0.286-0.288,0.765-0.766,1.052-1.053c1.724-1.628,2.202-4.117,1.915-6.415c-0.287-2.203-1.532-4.213-3.352-5.458
		c-1.914-1.341-4.308-1.723-6.51-1.149c-2.203,0.575-4.022,2.106-5.075,4.117c-0.192,0.479-0.479,1.053-0.575,1.628
		c0,0.287-0.096,0.574-0.287,0.766s-0.383,0.287-0.67,0.287H22.4h-1.915c-0.478,0-0.957-0.287-0.957-0.862
		c0-0.574,0.191-1.149,0.383-1.723c0.574-2.202,1.723-4.213,3.351-5.841c3.255-3.255,8.042-4.691,12.543-3.638
		c4.31,0.957,7.947,4.213,9.479,8.33C46.146,23.101,46.337,25.59,45.762,27.984"/>
</g>
</svg>
