<?xml version="1.0" encoding="utf-8"?>
<!-- Generator: Adobe Illustrator 16.0.0, SVG Export Plug-In . SVG Version: 6.00 Build 0)  -->
<!DOCTYPE svg PUBLIC "-//W3C//DTD SVG 1.1//EN" "http://www.w3.org/Graphics/SVG/1.1/DTD/svg11.dtd">
<svg version="1.1" id="Livello_1" xmlns="http://www.w3.org/2000/svg" xmlns:xlink="http://www.w3.org/1999/xlink" x="0px" y="0px"
	 width="54.756px" height="42.667px" viewBox="0 0 54.756 42.667" enable-background="new 0 0 54.756 42.667" xml:space="preserve">
<g>
	<defs>
		<rect id="SVGID_1_" width="54.756" height="42.667"/>
	</defs>
	<clipPath id="SVGID_2_">
		<use xlink:href="#SVGID_1_"  overflow="visible"/>
	</clipPath>
	<path clip-path="url(#SVGID_2_)" d="M16.617,7.693l-16,14.923c-0.49,0.462-0.49,1.52,0,1.982l16,14.924
		c0.41,0.478,1.15,0.396,1.486-0.164c0.335-0.56,0.186-1.466-0.299-1.817L2.867,23.627L17.804,9.675
		c0.354-0.312,0.509-0.931,0.362-1.437c-0.148-0.507-0.586-0.859-1.018-0.817C16.906,7.421,16.764,7.617,16.617,7.693 M36.95,9.675
		l14.938,13.952L36.95,37.54c-0.483,0.352-0.634,1.258-0.298,1.817c0.335,0.56,1.076,0.642,1.485,0.164l16-14.924
		c0.49-0.462,0.49-1.52,0-1.982l-16-14.923c-0.184-0.183-0.42-0.281-0.656-0.272C36.387,7.816,36.466,9.07,36.95,9.675"/>
	<path clip-path="url(#SVGID_2_)" fill="none" stroke="#000000" stroke-width="0.5" stroke-miterlimit="10" d="M16.617,7.693
		l-16,14.923c-0.49,0.462-0.49,1.52,0,1.982l16,14.924c0.41,0.478,1.15,0.396,1.486-0.164c0.335-0.56,0.186-1.466-0.299-1.817
		L2.867,23.627L17.804,9.675c0.354-0.312,0.509-0.931,0.362-1.437c-0.148-0.507-0.586-0.859-1.018-0.817
		C16.906,7.421,16.764,7.617,16.617,7.693z M36.95,9.675l14.938,13.952L36.95,37.54c-0.483,0.352-0.634,1.258-0.298,1.817
		c0.335,0.56,1.076,0.642,1.485,0.164l16-14.924c0.49-0.462,0.49-1.52,0-1.982l-16-14.923c-0.184-0.183-0.42-0.281-0.656-0.272
		C36.387,7.816,36.466,9.07,36.95,9.675z"/>
	<g clip-path="url(#SVGID_2_)">
		<text transform="matrix(1 0 0 1 20.0479 32.8535)" font-family="'MyriadPro-Regular'" font-size="39.252">s</text>
	</g>
</g>
</svg>
