<?xml version="1.0" encoding="utf-8"?>
<!-- Generator: Adobe Illustrator 16.0.0, SVG Export Plug-In . SVG Version: 6.00 Build 0)  -->
<!DOCTYPE svg PUBLIC "-//W3C//DTD SVG 1.1//EN" "http://www.w3.org/Graphics/SVG/1.1/DTD/svg11.dtd">
<svg version="1.1" id="Livello_1" xmlns="http://www.w3.org/2000/svg" xmlns:xlink="http://www.w3.org/1999/xlink" x="0px" y="0px"
	 width="64.756px" height="37.033px" viewBox="0 0 64.756 37.033" enable-background="new 0 0 64.756 37.033" xml:space="preserve">
<g>
	<defs>
		<rect id="SVGID_1_" width="64.756" height="37.033"/>
	</defs>
	<clipPath id="SVGID_2_">
		<use xlink:href="#SVGID_1_"  overflow="visible"/>
	</clipPath>
	<path clip-path="url(#SVGID_2_)" d="M38.086,0.51c-0.355,0.042-0.681,0.292-0.812,0.625l-14.001,34
		c-0.204,0.491,0.057,1.124,0.547,1.328c0.491,0.204,1.124-0.056,1.328-0.547l14-34C39.449,1.263,38.797,0.399,38.086,0.51"/>
	<path clip-path="url(#SVGID_2_)" fill="none" stroke="#000000" stroke-miterlimit="10" d="M38.086,0.51
		c-0.355,0.042-0.681,0.292-0.812,0.625l-14.001,34c-0.204,0.491,0.057,1.124,0.547,1.328c0.491,0.204,1.124-0.056,1.328-0.547
		l14-34C39.449,1.263,38.797,0.399,38.086,0.51z"/>
	<path clip-path="url(#SVGID_2_)" d="M16.617,2.875l-16,14.923c-0.49,0.462-0.49,1.52,0,1.982l16,14.924
		c0.41,0.478,1.15,0.396,1.486-0.164c0.335-0.56,0.186-1.466-0.299-1.817L2.867,18.81L17.804,4.857
		c0.354-0.312,0.509-0.931,0.362-1.437c-0.148-0.507-0.586-0.859-1.018-0.817C16.906,2.604,16.764,2.799,16.617,2.875 M46.95,4.857
		L61.889,18.81L46.95,32.723c-0.483,0.352-0.634,1.258-0.298,1.817c0.335,0.56,1.076,0.642,1.485,0.164l16-14.924
		c0.49-0.462,0.49-1.52,0-1.982l-16-14.923c-0.184-0.183-0.42-0.281-0.656-0.272C46.387,2.999,46.466,4.252,46.95,4.857"/>
	<path clip-path="url(#SVGID_2_)" fill="none" stroke="#000000" stroke-width="0.5" stroke-miterlimit="10" d="M16.617,2.875
		l-16,14.923c-0.49,0.462-0.49,1.52,0,1.982l16,14.924c0.41,0.478,1.15,0.396,1.486-0.164c0.335-0.56,0.186-1.466-0.299-1.817
		L2.867,18.81L17.804,4.857c0.354-0.312,0.509-0.931,0.362-1.437c-0.148-0.507-0.586-0.859-1.018-0.817
		C16.906,2.604,16.764,2.799,16.617,2.875z M46.95,4.857L61.889,18.81L46.95,32.723c-0.483,0.352-0.634,1.258-0.298,1.817
		c0.335,0.56,1.076,0.642,1.485,0.164l16-14.924c0.49-0.462,0.49-1.52,0-1.982l-16-14.923c-0.184-0.183-0.42-0.281-0.656-0.272
		C46.387,2.999,46.466,4.252,46.95,4.857z"/>
</g>
</svg>
