<?xml version="1.0" encoding="utf-8"?>
<!-- Generator: Adobe Illustrator 16.0.0, SVG Export Plug-In . SVG Version: 6.00 Build 0)  -->
<!DOCTYPE svg PUBLIC "-//W3C//DTD SVG 1.1//EN" "http://www.w3.org/Graphics/SVG/1.1/DTD/svg11.dtd">
<svg version="1.1" id="Livello_1" xmlns="http://www.w3.org/2000/svg" xmlns:xlink="http://www.w3.org/1999/xlink" x="0px" y="0px"
	 width="45px" height="26.5px" viewBox="0 0 45 26.5" enable-background="new 0 0 45 26.5" xml:space="preserve">
<g>
	<defs>
		<rect id="SVGID_1_" width="45" height="26.5"/>
	</defs>
	<clipPath id="SVGID_2_">
		<use xlink:href="#SVGID_1_"  overflow="visible"/>
	</clipPath>
	<path clip-path="url(#SVGID_2_)" d="M3.333,26.5h26.556c1.833,0,3.333-1.5,3.333-3.333v-3.333L41,24.889
		c0.445,0.278,0.889,0.444,1.389,0.444c0.444,0,0.833-0.11,1.223-0.333C44.445,24.556,45,23.611,45,22.667V3.834
		c0-1-0.555-1.889-1.389-2.334C42.778,1.056,41.778,1.056,41,1.611l-7.778,5.056V3.334C33.222,1.5,31.722,0,29.889,0H3.333
		C1.5,0,0,1.5,0,3.334v19.944C0,25,1.5,26.5,3.333,26.5 M42.222,3.445c0.167-0.111,0.278-0.056,0.334,0
		c0.056,0.055,0.223,0.166,0.223,0.389v18.777c0,0.223-0.167,0.334-0.223,0.389c-0.11,0.056-0.223,0.056-0.334,0l-9-5.833V9.278
		L42.222,3.445z M2.222,3.278c0-0.611,0.5-1.111,1.111-1.111h26.556C30.5,2.167,31,2.667,31,3.278v19.944
		c0,0.612-0.5,1.112-1.111,1.112H3.333c-0.611,0-1.111-0.5-1.111-1.112V3.278z"/>
</g>
</svg>
